<svg width="220" height="54" viewBox="0 0 220 54" fill="none" xmlns="http://www.w3.org/2000/svg">
<path d="M44.4823 2.00461H45.2421V11.1712H44.4823V2.00461Z" fill="#FFC700"/>
<path d="M46.9387 3.18788C46.5857 3.72981 43.1388 3.72981 42.7858 3.18788C42.4328 2.64594 44.1562 0 44.8622 0C45.5683 0 47.2917 2.64594 46.9387 3.18788V3.18788Z" fill="#FFC700"/>
<path d="M48.4301 7.09332C47.8236 8.02443 41.9013 8.02443 41.2948 7.09332C40.6883 6.16221 43.6494 1.61621 44.8624 1.61621C46.0754 1.61621 49.0366 6.16221 48.4301 7.09332Z" fill="#FFC700"/>
<path fill-rule="evenodd" clip-rule="evenodd" d="M30.4615 19.2396L45.8853 8.26437L55.4349 9.22569L62.5527 20.153L30.4615 19.2396Z" fill="#FFC700"/>
<path d="M51.0724 4.82553H51.5264V10.3036H51.0724V4.82553Z" fill="#FFC700"/>
<path d="M52.5404 5.53269C52.3295 5.85656 50.2695 5.85656 50.0586 5.53269C49.8476 5.20882 50.8776 3.62756 51.2995 3.62756C51.7214 3.62756 52.7514 5.20882 52.5404 5.53269Z" fill="#FFC700"/>
<path d="M53.4313 7.86666C53.0688 8.42311 49.5296 8.42311 49.1672 7.86666C48.8047 7.31021 50.5743 4.59344 51.2992 4.59344C52.0241 4.59344 53.7937 7.31021 53.4313 7.86666Z" fill="#FFC700"/>
<path d="M38.4421 10.743H38.7237V14.1404H38.4421V10.743Z" fill="#FFC700"/>
<path d="M39.3527 11.1815C39.2219 11.3824 37.9443 11.3824 37.8135 11.1815C37.6826 10.9807 38.3214 10 38.5831 10C38.8448 10 39.4835 10.9807 39.3527 11.1815Z" fill="#FFC700"/>
<path d="M39.9053 12.6291C39.6805 12.9742 37.4855 12.9742 37.2607 12.6291C37.0359 12.284 38.1334 10.5991 38.583 10.5991C39.0326 10.5991 40.1301 12.284 39.9053 12.6291V12.6291Z" fill="#FFC700"/>
<path fill-rule="evenodd" clip-rule="evenodd" d="M32.6116 10.0015C30.0589 10.0449 26.2037 11.0194 19.4867 13.0942C11.8062 15.4665 5.25442 15.5886 0 14.7677C1.02164 25.3703 6.49342 35.2474 15.3339 42.4469C24.1744 49.6465 35.7403 53.6446 47.7457 53.651C58.2705 53.64 68.4988 50.56 76.853 44.8859C85.2072 39.2119 91.2231 31.2591 93.9727 22.2543C92.3279 22.4634 90.6212 22.8607 88.8554 23.4868C69.3151 30.4147 61.1732 31.8579 47.1693 21.466C37.5416 14.3216 38.2275 9.90617 32.6116 10.0015Z" fill="#4FC3F7"/>
<rect x="21" y="18" width="198.564" height="25" rx="10" fill="#FFC700"/>
<path d="M66.376 25.816H68.872V37H66.376V25.816ZM73.226 37V25.816H75.722V34.776H80.49V37H73.226ZM91.8878 37L90.8478 34.584H86.1598L85.1198 37H82.4638L87.2958 25.816H89.7118L94.5438 37H91.8878ZM88.5118 29.144L87.1038 32.392H89.9038L88.5118 29.144ZM105.266 25.816H107.762V37H105.266L99.9376 29.992V37H97.4416V25.816H99.7776L105.266 33.016V25.816ZM116.072 25.816C118.066 25.816 119.597 26.3067 120.664 27.288C121.73 28.2587 122.264 29.6133 122.264 31.352C122.264 33.0907 121.741 34.4667 120.696 35.48C119.661 36.4933 118.077 37 115.944 37H112.12V25.816H116.072ZM116.2 34.792C117.341 34.792 118.216 34.504 118.824 33.928C119.442 33.352 119.752 32.5147 119.752 31.416C119.752 30.3173 119.442 29.4747 118.824 28.888C118.216 28.2907 117.277 27.992 116.008 27.992H114.616V34.792H116.2ZM129.539 27.752C129.123 27.752 128.792 27.8533 128.547 28.056C128.312 28.248 128.195 28.5093 128.195 28.84C128.195 29.16 128.339 29.416 128.627 29.608C128.925 29.8 129.603 30.0293 130.659 30.296C131.725 30.552 132.552 30.9413 133.139 31.464C133.725 31.9867 134.019 32.7493 134.019 33.752C134.019 34.7547 133.64 35.5707 132.883 36.2C132.136 36.8187 131.149 37.128 129.923 37.128C128.152 37.128 126.557 36.472 125.139 35.16L126.627 33.336C127.832 34.392 128.947 34.92 129.971 34.92C130.429 34.92 130.787 34.824 131.043 34.632C131.309 34.4293 131.443 34.1627 131.443 33.832C131.443 33.4907 131.304 33.224 131.027 33.032C130.749 32.8293 130.2 32.6267 129.379 32.424C128.077 32.1147 127.123 31.7147 126.515 31.224C125.917 30.7227 125.618 29.944 125.618 28.888C125.618 27.8213 125.997 27 126.755 26.424C127.523 25.848 128.477 25.56 129.619 25.56C130.365 25.56 131.112 25.688 131.859 25.944C132.605 26.2 133.256 26.5627 133.811 27.032L132.547 28.856C131.576 28.12 130.573 27.752 129.539 27.752ZM143.56 25.816H146.056V37H143.56V25.816ZM158.234 25.816H160.73V37H158.234L152.906 29.992V37H150.41V25.816H152.746L158.234 33.016V25.816ZM170.225 34.792C171.451 34.792 172.454 34.3067 173.233 33.336L174.833 34.984C173.563 36.4133 172.065 37.128 170.337 37.128C168.619 37.128 167.201 36.584 166.081 35.496C164.971 34.408 164.417 33.0373 164.417 31.384C164.417 29.72 164.982 28.3333 166.113 27.224C167.254 26.1147 168.646 25.56 170.289 25.56C172.123 25.56 173.659 26.2587 174.897 27.656L173.345 29.416C172.555 28.4347 171.574 27.944 170.401 27.944C169.462 27.944 168.657 28.2533 167.985 28.872C167.323 29.48 166.993 30.3067 166.993 31.352C166.993 32.3867 167.307 33.2187 167.937 33.848C168.566 34.4773 169.329 34.792 170.225 34.792ZM178.327 36.728C178.061 36.4507 177.927 36.1147 177.927 35.72C177.927 35.3253 178.061 34.9947 178.327 34.728C178.605 34.4507 178.941 34.312 179.335 34.312C179.73 34.312 180.061 34.4507 180.327 34.728C180.605 34.9947 180.743 35.3253 180.743 35.72C180.743 36.1147 180.605 36.4507 180.327 36.728C180.061 36.9947 179.73 37.128 179.335 37.128C178.941 37.128 178.605 36.9947 178.327 36.728Z" fill="white"/>
</svg>
